<?xml version="1.0" encoding="UTF-8" standalone="no"?>
<!-- Created with Inkscape (http://www.inkscape.org/) -->

<svg
   xmlns:dc="http://purl.org/dc/elements/1.1/"
   xmlns:cc="http://creativecommons.org/ns#"
   xmlns:rdf="http://www.w3.org/1999/02/22-rdf-syntax-ns#"
   xmlns:svg="http://www.w3.org/2000/svg"
   xmlns="http://www.w3.org/2000/svg"
   xmlns:sodipodi="http://sodipodi.sourceforge.net/DTD/sodipodi-0.dtd"
   xmlns:inkscape="http://www.inkscape.org/namespaces/inkscape"
   width="210mm"
   height="297mm"
   viewBox="0 0 210 297"
   version="1.1"
   id="svg8"
   inkscape:version="0.92.5 (2060ec1f9f, 2020-04-08)"
   sodipodi:docname="drawing.svg">
  <defs
     id="defs2" />
  <sodipodi:namedview
     id="base"
     pagecolor="#ffffff"
     bordercolor="#666666"
     borderopacity="1.0"
     inkscape:pageopacity="0.0"
     inkscape:pageshadow="2"
     inkscape:zoom="0.35"
     inkscape:cx="400"
     inkscape:cy="560"
     inkscape:document-units="mm"
     inkscape:current-layer="layer1"
     showgrid="false"
     inkscape:window-width="1366"
     inkscape:window-height="704"
     inkscape:window-x="0"
     inkscape:window-y="27"
     inkscape:window-maximized="1" />
  <metadata
     id="metadata5">
    <rdf:RDF>
      <cc:Work
         rdf:about="">
        <dc:format>image/svg+xml</dc:format>
        <dc:type
           rdf:resource="http://purl.org/dc/dcmitype/StillImage" />
        <dc:title></dc:title>
      </cc:Work>
    </rdf:RDF>
  </metadata>
  <g
     inkscape:label="Layer 1"
     inkscape:groupmode="layer"
     id="layer1">
    <path
       id="path3729"
       transform="scale(0.26458333)"
       style="fill:none;stroke:#000000;stroke-width:0.99999994px;stroke-linecap:butt;stroke-linejoin:miter;stroke-opacity:1"
       d="m 414.28516,239.66211 -68.57032,140 L 300,308.23438 l -60,100 -34.28516,-60 -0.40039,1.06054 c 0.13382,6.00078 0.1731,10.8447 -1.01757,12.75391 0.005,0.19343 0.0151,0.34909 0.0195,0.54492 -0.15237,-0.005 -0.30469,-0.0121 -0.45703,-0.0176 -0.62726,0.54452 -1.50981,0.53417 -2.71485,-0.10156 -0.26434,-0.0101 -0.52862,-0.0192 -0.79297,-0.0293 l -51.77929,137.2168 227.19921,-1.89258 c 0.21718,-0.19644 0.0577,-0.3851 -0.78515,-0.58398 -3.03863,0.55313 -2.06752,0.55187 9.29883,-3.04102 0.95266,0.0537 1.90471,0.10687 2.85742,0.16016 -0.20258,0.14211 -0.8054,0.27939 -0.60742,0.42773 0.85896,0.64423 1.73102,1.27055 2.60937,1.88867 1.17173,0.21857 2.2617,0.54785 3.21289,1.00977 l 99.07031,-0.82617 z m -25.14063,256.95898 c -0.98883,-0.18445 -2.02427,-0.29646 -3.08594,-0.34765 0.33325,0.39783 0.6384,0.87242 0.92383,1.40234 l 3.6543,-0.0312 c -0.49747,-0.34135 -0.999,-0.67636 -1.49219,-1.02344 z m -14.1582,0.56446 c 1.32616,0.18016 2.65235,0.36098 3.97851,0.54101 0.17983,-0.44758 0.43828,-0.85805 0.78125,-1.23242 -1.98896,0.21023 -3.61314,0.48269 -4.75976,0.69141 z m 3.97851,0.54101 c -0.002,0.005 -0.002,0.0107 -0.004,0.0156 l 0.10937,-0.002 c -0.0351,-0.005 -0.0703,-0.009 -0.10547,-0.0137 z" />
    <path
       style="fill:none;stroke:#000000;stroke-width:0.26458332px;stroke-linecap:butt;stroke-linejoin:miter;stroke-opacity:1"
       d="m 39.309738,132.20226 c 14.36288,-11.33917 10.583119,-16.63083 15.118834,-11.33917 4.535712,5.29167 4.535712,5.29167 4.535712,5.29167"
       id="path3738"
       inkscape:connector-curvature="0" />
    <path
       style="fill:none;stroke:#000000;stroke-width:0.26458332px;stroke-linecap:butt;stroke-linejoin:miter;stroke-opacity:1"
       d="m 58.964284,126.15476 c 4.535715,-18.14275 4.535715,-18.14275 4.535715,-18.14275"
       id="path3740"
       inkscape:connector-curvature="0" />
    <path
       style="fill:none;stroke:#000000;stroke-width:0.26458332px;stroke-linecap:butt;stroke-linejoin:miter;stroke-opacity:1"
       d="m 58.964284,126.15476 16.630954,-6.80357 c 0,0 -7.559524,-6.80357 0,0 7.559522,6.80357 2.267855,17.3869 7.559522,6.80357 5.291666,-10.58333 5.291666,-10.58333 5.291666,-10.58333"
       id="path3742"
       inkscape:connector-curvature="0" />
    <path
       id="path3791"
       transform="scale(0.26458333)"
       style="fill:none;stroke:#000000;stroke-width:0.99999994px;stroke-linecap:butt;stroke-linejoin:miter;stroke-opacity:1"
       d="M 334.28516,436.80469 380,491.0918 l 111.42773,5.71289 z" />
  </g>
</svg>
